<svg xmlns="http://www.w3.org/2000/svg" viewBox="0 0 512 512">
  <path d="M256 0H0v256l276 20z" fill="#a1a1a1"/>
  <path d="M512 256V0H256v276z" fill="#7e7e7e"/>
  <path d="M0 256v256h256l20-128-20-128z" fill="#7e7e7e"/>
  <path d="M256 256h256v256H256z" fill="#626262"/>
  <path d="M303.8 369h160.4v30H303.8zM303.8 113h160.4v30H303.8zM368 304.3h32v31.9h-32zM368 431.8h32v31.9h-32z" fill="#f3f3f3"/>
  <g fill="#fff5f5">
    <path d="M208.2 113H143V47.8h-30V113H47.8v30H113v65.2h30V143h65.2zM195.3 337.9l-21.2-21.2-46.1 46-46.1-46-21.2 21.2 46 46.1-46 46.1 21.2 21.2 46.1-46 46.1 46 21.2-21.2-46-46.1z" fill="#f3f3f3"/>
  </g>
</svg>